<svg xmlns="http://www.w3.org/2000/svg" xmlns:xlink="http://www.w3.org/1999/xlink" width="40" zoomAndPan="magnify" viewBox="0 0 30 30.000001" height="40" preserveAspectRatio="xMidYMid meet" version="1.0"><defs><clipPath id="3d47a4ef0e"><path d="M 0.484375 0 L 29.515625 0 L 29.515625 29.03125 L 0.484375 29.03125 Z M 0.484375 0 " clip-rule="nonzero"/></clipPath><clipPath id="12c29f7149"><path d="M 3.386719 2.902344 L 26.613281 2.902344 L 26.613281 26 L 3.386719 26 Z M 3.386719 2.902344 " clip-rule="nonzero"/></clipPath></defs><g clip-path="url(#3d47a4ef0e)"><path fill="#ffffff" d="M 0.484375 0 L 29.515625 0 L 29.515625 29.03125 L 0.484375 29.03125 Z M 0.484375 0 " fill-opacity="1" fill-rule="nonzero"/><path fill="#000000" d="M 0.484375 0 L 29.515625 0 L 29.515625 29.03125 L 0.484375 29.03125 Z M 0.484375 0 " fill-opacity="1" fill-rule="nonzero"/></g><g clip-path="url(#12c29f7149)"><path fill="#ffffff" d="M 26.613281 14.515625 C 26.613281 8.101562 21.414062 2.902344 15 2.902344 C 8.585938 2.902344 3.386719 8.101562 3.386719 14.515625 C 3.386719 20.3125 7.632812 25.117188 13.183594 25.988281 L 13.183594 17.871094 L 10.238281 17.871094 L 10.238281 14.515625 L 13.183594 14.515625 L 13.183594 11.957031 C 13.183594 9.046875 14.917969 7.441406 17.570312 7.441406 C 18.84375 7.441406 20.171875 7.667969 20.171875 7.667969 L 20.171875 10.523438 L 18.707031 10.523438 C 17.265625 10.523438 16.816406 11.417969 16.816406 12.335938 L 16.816406 14.515625 L 20.035156 14.515625 L 19.519531 17.871094 L 16.816406 17.871094 L 16.816406 25.988281 C 22.367188 25.117188 26.613281 20.3125 26.613281 14.515625 " fill-opacity="1" fill-rule="nonzero"/></g></svg>