<svg xmlns="http://www.w3.org/2000/svg" xmlns:xlink="http://www.w3.org/1999/xlink" width="40" zoomAndPan="magnify" viewBox="0 0 30 30.000001" height="40" preserveAspectRatio="xMidYMid meet" version="1.0"><defs><clipPath id="df1f8bcf82"><path d="M 0.484375 0 L 29.515625 0 L 29.515625 29.03125 L 0.484375 29.03125 Z M 0.484375 0 " clip-rule="nonzero"/></clipPath><clipPath id="5c4ba05146"><path d="M 3.386719 2.902344 L 26.613281 2.902344 L 26.613281 26.128906 L 3.386719 26.128906 Z M 3.386719 2.902344 " clip-rule="nonzero"/></clipPath></defs><g clip-path="url(#df1f8bcf82)"><path fill="#ffffff" d="M 0.484375 0 L 29.515625 0 L 29.515625 29.03125 L 0.484375 29.03125 Z M 0.484375 0 " fill-opacity="1" fill-rule="nonzero"/><path fill="#000000" d="M 0.484375 0 L 29.515625 0 L 29.515625 29.03125 L 0.484375 29.03125 Z M 0.484375 0 " fill-opacity="1" fill-rule="nonzero"/></g><g clip-path="url(#5c4ba05146)"><path fill="#ffffff" d="M 10.191406 2.984375 C 8.953125 3.042969 8.109375 3.238281 7.375 3.53125 C 6.609375 3.828125 5.960938 4.226562 5.320312 4.871094 C 4.675781 5.519531 4.277344 6.167969 3.984375 6.929688 C 3.699219 7.671875 3.503906 8.515625 3.449219 9.75 C 3.394531 10.988281 3.382812 11.386719 3.386719 14.539062 C 3.394531 17.691406 3.410156 18.085938 3.46875 19.328125 C 3.527344 20.5625 3.722656 21.40625 4.015625 22.144531 C 4.3125 22.90625 4.710938 23.554688 5.355469 24.199219 C 6.003906 24.839844 6.648438 25.238281 7.417969 25.53125 C 8.15625 25.816406 9 26.011719 10.234375 26.066406 C 11.472656 26.121094 11.871094 26.132812 15.023438 26.128906 C 18.175781 26.121094 18.574219 26.109375 19.8125 26.050781 C 21.050781 25.988281 21.890625 25.792969 22.625 25.503906 C 23.390625 25.207031 24.039062 24.808594 24.679688 24.160156 C 25.324219 23.515625 25.722656 22.867188 26.015625 22.101562 C 26.300781 21.363281 26.496094 20.515625 26.550781 19.28125 C 26.605469 18.042969 26.617188 17.648438 26.609375 14.492188 C 26.605469 11.339844 26.589844 10.945312 26.53125 9.707031 C 26.472656 8.46875 26.277344 7.628906 25.988281 6.890625 C 25.6875 6.125 25.289062 5.480469 24.644531 4.835938 C 24 4.191406 23.351562 3.792969 22.585938 3.5 C 21.847656 3.214844 21 3.019531 19.765625 2.964844 C 18.53125 2.914062 18.132812 2.898438 14.976562 2.90625 C 11.824219 2.910156 11.429688 2.925781 10.191406 2.984375 M 10.324219 23.976562 C 9.195312 23.929688 8.578125 23.742188 8.167969 23.582031 C 7.625 23.375 7.242188 23.121094 6.832031 22.71875 C 6.421875 22.3125 6.171875 21.925781 5.960938 21.382812 C 5.800781 20.972656 5.609375 20.359375 5.558594 19.226562 C 5.5 18.003906 5.488281 17.636719 5.480469 14.535156 C 5.472656 11.433594 5.484375 11.066406 5.539062 9.84375 C 5.589844 8.710938 5.777344 8.097656 5.933594 7.6875 C 6.144531 7.144531 6.394531 6.757812 6.800781 6.351562 C 7.207031 5.941406 7.59375 5.691406 8.132812 5.480469 C 8.542969 5.320312 9.15625 5.128906 10.289062 5.074219 C 11.515625 5.019531 11.882812 5.007812 14.980469 5 C 18.082031 4.992188 18.449219 5.003906 19.675781 5.058594 C 20.804688 5.105469 21.421875 5.292969 21.832031 5.453125 C 22.371094 5.660156 22.757812 5.914062 23.167969 6.320312 C 23.574219 6.726562 23.828125 7.109375 24.039062 7.652344 C 24.199219 8.0625 24.390625 8.675781 24.441406 9.808594 C 24.5 11.03125 24.515625 11.398438 24.519531 14.5 C 24.523438 17.597656 24.515625 17.96875 24.460938 19.191406 C 24.410156 20.324219 24.222656 20.9375 24.066406 21.347656 C 23.855469 21.890625 23.605469 22.277344 23.199219 22.683594 C 22.792969 23.09375 22.40625 23.34375 21.863281 23.554688 C 21.457031 23.714844 20.839844 23.90625 19.710938 23.960938 C 18.484375 24.019531 18.117188 24.03125 15.019531 24.035156 C 11.917969 24.042969 11.550781 24.03125 10.328125 23.976562 M 19.792969 8.308594 C 19.792969 8.496094 19.828125 8.671875 19.898438 8.84375 C 19.972656 9.011719 20.070312 9.164062 20.203125 9.292969 C 20.332031 9.425781 20.484375 9.523438 20.65625 9.59375 C 20.828125 9.664062 21.003906 9.699219 21.1875 9.699219 C 21.375 9.699219 21.550781 9.664062 21.722656 9.59375 C 21.894531 9.523438 22.042969 9.421875 22.175781 9.289062 C 22.304688 9.160156 22.40625 9.007812 22.476562 8.839844 C 22.546875 8.667969 22.582031 8.488281 22.582031 8.304688 C 22.578125 8.121094 22.542969 7.941406 22.472656 7.769531 C 22.402344 7.601562 22.300781 7.449219 22.171875 7.320312 C 22.039062 7.1875 21.886719 7.089844 21.71875 7.019531 C 21.546875 6.949219 21.367188 6.914062 21.183594 6.914062 C 21 6.914062 20.820312 6.949219 20.652344 7.019531 C 20.480469 7.089844 20.328125 7.191406 20.199219 7.324219 C 20.070312 7.453125 19.96875 7.605469 19.898438 7.777344 C 19.828125 7.945312 19.792969 8.125 19.792969 8.308594 M 9.039062 14.527344 C 9.042969 17.820312 11.71875 20.484375 15.011719 20.480469 C 18.304688 20.472656 20.96875 17.796875 20.964844 14.503906 C 20.957031 11.210938 18.28125 8.546875 14.988281 8.554688 C 11.695312 8.558594 9.03125 11.234375 9.039062 14.527344 M 11.128906 14.523438 C 11.128906 14.269531 11.152344 14.019531 11.203125 13.769531 C 11.25 13.519531 11.324219 13.277344 11.421875 13.042969 C 11.515625 12.804688 11.636719 12.582031 11.777344 12.371094 C 11.917969 12.160156 12.078125 11.964844 12.257812 11.785156 C 12.4375 11.605469 12.632812 11.441406 12.84375 11.300781 C 13.054688 11.160156 13.277344 11.039062 13.511719 10.941406 C 13.746094 10.84375 13.988281 10.769531 14.238281 10.722656 C 14.488281 10.671875 14.738281 10.644531 14.992188 10.644531 C 15.246094 10.644531 15.5 10.667969 15.746094 10.71875 C 15.996094 10.765625 16.238281 10.839844 16.472656 10.9375 C 16.710938 11.035156 16.933594 11.152344 17.144531 11.292969 C 17.355469 11.433594 17.550781 11.59375 17.730469 11.773438 C 17.910156 11.953125 18.074219 12.148438 18.214844 12.359375 C 18.355469 12.570312 18.476562 12.792969 18.574219 13.027344 C 18.671875 13.261719 18.746094 13.503906 18.796875 13.753906 C 18.84375 14.003906 18.871094 14.253906 18.871094 14.507812 C 18.871094 14.761719 18.847656 15.015625 18.796875 15.261719 C 18.75 15.511719 18.675781 15.753906 18.578125 15.988281 C 18.484375 16.226562 18.363281 16.449219 18.222656 16.660156 C 18.082031 16.871094 17.921875 17.066406 17.742188 17.246094 C 17.5625 17.429688 17.367188 17.589844 17.15625 17.730469 C 16.945312 17.871094 16.722656 17.992188 16.488281 18.089844 C 16.253906 18.1875 16.011719 18.261719 15.761719 18.3125 C 15.511719 18.359375 15.261719 18.386719 15.007812 18.386719 C 14.753906 18.386719 14.5 18.363281 14.253906 18.3125 C 14.003906 18.265625 13.761719 18.191406 13.527344 18.09375 C 13.289062 18 13.066406 17.878906 12.855469 17.738281 C 12.644531 17.597656 12.449219 17.4375 12.269531 17.257812 C 12.089844 17.078125 11.925781 16.882812 11.785156 16.671875 C 11.644531 16.460938 11.523438 16.238281 11.425781 16.003906 C 11.328125 15.769531 11.253906 15.527344 11.203125 15.277344 C 11.15625 15.03125 11.128906 14.777344 11.128906 14.523438 " fill-opacity="1" fill-rule="nonzero"/></g></svg>