<svg xmlns="http://www.w3.org/2000/svg" xmlns:xlink="http://www.w3.org/1999/xlink" width="40" zoomAndPan="magnify" viewBox="0 0 30 30.000001" height="40" preserveAspectRatio="xMidYMid meet" version="1.0"><defs><clipPath id="cf2c90061d"><path d="M 0.484375 0 L 29.515625 0 L 29.515625 29.03125 L 0.484375 29.03125 Z M 0.484375 0 " clip-rule="nonzero"/></clipPath><clipPath id="f1055a517c"><path d="M 3.386719 4.714844 L 23 4.714844 L 23 24.308594 L 3.386719 24.308594 Z M 3.386719 4.714844 " clip-rule="nonzero"/></clipPath><clipPath id="25e924857b"><path d="M 23 21 L 26.613281 21 L 26.613281 24.308594 L 23 24.308594 Z M 23 21 " clip-rule="nonzero"/></clipPath></defs><g clip-path="url(#cf2c90061d)"><path fill="#ffffff" d="M 0.484375 0 L 29.515625 0 L 29.515625 29.03125 L 0.484375 29.03125 Z M 0.484375 0 " fill-opacity="1" fill-rule="nonzero"/><path fill="#000000" d="M 0.484375 0 L 29.515625 0 L 29.515625 29.03125 L 0.484375 29.03125 Z M 0.484375 0 " fill-opacity="1" fill-rule="nonzero"/></g><path fill="#ffffff" d="M 25.363281 23.042969 C 25.46875 23.046875 25.558594 23.007812 25.628906 22.933594 C 25.699219 22.859375 25.734375 22.769531 25.726562 22.664062 C 25.726562 22.394531 25.566406 22.265625 25.230469 22.265625 L 24.691406 22.265625 L 24.691406 23.679688 L 24.894531 23.679688 L 24.894531 23.0625 L 25.144531 23.0625 L 25.148438 23.070312 L 25.535156 23.679688 L 25.753906 23.679688 L 25.335938 23.046875 Z M 25.128906 22.902344 L 24.894531 22.902344 L 24.894531 22.425781 L 25.191406 22.425781 C 25.347656 22.425781 25.523438 22.449219 25.523438 22.652344 C 25.523438 22.882812 25.34375 22.902344 25.128906 22.902344 " fill-opacity="1" fill-rule="nonzero"/><g clip-path="url(#f1055a517c)"><path fill="#ffffff" d="M 20.066406 21.273438 L 17.1875 21.273438 L 17.1875 16.761719 C 17.1875 15.6875 17.167969 14.304688 15.691406 14.304688 C 14.191406 14.304688 13.960938 15.476562 13.960938 16.683594 L 13.960938 21.273438 L 11.082031 21.273438 L 11.082031 12 L 13.84375 12 L 13.84375 13.265625 L 13.882812 13.265625 C 14.164062 12.785156 14.550781 12.410156 15.039062 12.140625 C 15.53125 11.871094 16.054688 11.746094 16.613281 11.769531 C 19.53125 11.769531 20.070312 13.6875 20.070312 16.1875 Z M 7.832031 10.730469 C 7.609375 10.730469 7.394531 10.6875 7.191406 10.605469 C 6.988281 10.519531 6.804688 10.398438 6.648438 10.242188 C 6.492188 10.085938 6.371094 9.90625 6.285156 9.699219 C 6.203125 9.496094 6.160156 9.28125 6.160156 9.058594 C 6.160156 8.839844 6.203125 8.625 6.285156 8.421875 C 6.371094 8.214844 6.492188 8.035156 6.648438 7.878906 C 6.804688 7.722656 6.984375 7.601562 7.191406 7.515625 C 7.394531 7.429688 7.609375 7.386719 7.832031 7.386719 C 8.050781 7.386719 8.265625 7.429688 8.46875 7.515625 C 8.675781 7.601562 8.855469 7.722656 9.011719 7.878906 C 9.167969 8.035156 9.289062 8.214844 9.375 8.421875 C 9.460938 8.625 9.5 8.835938 9.5 9.058594 C 9.5 9.28125 9.460938 9.496094 9.375 9.699219 C 9.289062 9.902344 9.167969 10.085938 9.011719 10.242188 C 8.855469 10.398438 8.675781 10.519531 8.46875 10.605469 C 8.265625 10.6875 8.050781 10.730469 7.832031 10.730469 M 9.269531 21.273438 L 6.386719 21.273438 L 6.386719 12 L 9.269531 12 Z M 21.503906 4.714844 L 4.941406 4.714844 C 4.753906 4.710938 4.570312 4.746094 4.398438 4.816406 C 4.222656 4.886719 4.066406 4.988281 3.933594 5.117188 C 3.800781 5.25 3.695312 5.402344 3.621094 5.574219 C 3.546875 5.746094 3.507812 5.925781 3.507812 6.113281 L 3.507812 22.746094 C 3.507812 22.933594 3.546875 23.113281 3.621094 23.289062 C 3.695312 23.460938 3.800781 23.613281 3.933594 23.742188 C 4.066406 23.875 4.222656 23.976562 4.398438 24.046875 C 4.570312 24.117188 4.753906 24.152344 4.941406 24.148438 L 21.503906 24.148438 C 21.691406 24.152344 21.875 24.117188 22.046875 24.046875 C 22.222656 23.976562 22.378906 23.875 22.511719 23.746094 C 22.648438 23.613281 22.753906 23.460938 22.828125 23.289062 C 22.902344 23.113281 22.941406 22.933594 22.941406 22.746094 L 22.941406 6.113281 C 22.941406 5.925781 22.902344 5.746094 22.828125 5.570312 C 22.753906 5.398438 22.648438 5.246094 22.511719 5.117188 C 22.378906 4.984375 22.222656 4.882812 22.046875 4.8125 C 21.871094 4.746094 21.691406 4.710938 21.503906 4.714844 " fill-opacity="1" fill-rule="nonzero"/></g><g clip-path="url(#25e924857b)"><path fill="#ffffff" d="M 25.15625 21.636719 C 25.039062 21.636719 24.925781 21.652344 24.8125 21.683594 C 24.703125 21.714844 24.59375 21.757812 24.496094 21.816406 C 24.394531 21.878906 24.304688 21.949219 24.222656 22.03125 C 24.140625 22.113281 24.074219 22.203125 24.015625 22.304688 C 23.957031 22.40625 23.914062 22.511719 23.886719 22.625 C 23.855469 22.738281 23.839844 22.851562 23.84375 22.96875 C 23.84375 23.082031 23.859375 23.195312 23.890625 23.308594 C 23.917969 23.421875 23.964844 23.527344 24.023438 23.628906 C 24.082031 23.726562 24.148438 23.816406 24.234375 23.898438 C 24.316406 23.980469 24.40625 24.050781 24.507812 24.109375 C 24.605469 24.167969 24.714844 24.210938 24.824219 24.242188 C 24.9375 24.269531 25.050781 24.285156 25.167969 24.285156 C 25.285156 24.285156 25.398438 24.269531 25.507812 24.242188 C 25.621094 24.210938 25.726562 24.167969 25.828125 24.109375 C 25.929688 24.050781 26.019531 23.980469 26.101562 23.898438 C 26.183594 23.816406 26.253906 23.726562 26.3125 23.628906 C 26.371094 23.527344 26.414062 23.421875 26.445312 23.308594 C 26.476562 23.195312 26.492188 23.082031 26.492188 22.96875 C 26.492188 22.851562 26.480469 22.738281 26.449219 22.625 C 26.421875 22.511719 26.375 22.40625 26.320312 22.304688 C 26.261719 22.203125 26.191406 22.113281 26.113281 22.03125 C 26.03125 21.949219 25.9375 21.878906 25.839844 21.816406 C 25.738281 21.757812 25.632812 21.714844 25.523438 21.683594 C 25.410156 21.652344 25.296875 21.636719 25.179688 21.636719 L 25.15625 21.636719 M 25.15625 24.132812 C 25 24.136719 24.851562 24.109375 24.707031 24.054688 C 24.566406 23.996094 24.4375 23.914062 24.328125 23.808594 C 24.214844 23.699219 24.128906 23.578125 24.070312 23.433594 C 24.007812 23.292969 23.976562 23.144531 23.972656 22.992188 C 23.972656 22.835938 23.996094 22.6875 24.054688 22.546875 C 24.109375 22.402344 24.191406 22.273438 24.300781 22.164062 C 24.40625 22.054688 24.53125 21.96875 24.671875 21.90625 C 24.8125 21.84375 24.960938 21.8125 25.117188 21.808594 C 25.269531 21.808594 25.417969 21.835938 25.5625 21.890625 C 25.707031 21.949219 25.832031 22.03125 25.945312 22.136719 C 26.054688 22.242188 26.140625 22.367188 26.203125 22.507812 C 26.261719 22.652344 26.292969 22.800781 26.296875 22.953125 C 26.296875 22.960938 26.296875 22.964844 26.296875 22.972656 C 26.300781 23.125 26.273438 23.269531 26.21875 23.410156 C 26.164062 23.550781 26.085938 23.675781 25.980469 23.785156 C 25.878906 23.890625 25.757812 23.976562 25.617188 24.039062 C 25.480469 24.097656 25.335938 24.128906 25.183594 24.132812 L 25.15625 24.132812 " fill-opacity="1" fill-rule="nonzero"/></g></svg>