<svg xmlns="http://www.w3.org/2000/svg" xmlns:xlink="http://www.w3.org/1999/xlink" width="40" zoomAndPan="magnify" viewBox="0 0 30 30.000001" height="40" preserveAspectRatio="xMidYMid meet" version="1.0"><defs><clipPath id="c15230e29d"><path d="M 0.484375 0 L 29.515625 0 L 29.515625 29.03125 L 0.484375 29.03125 Z M 0.484375 0 " clip-rule="nonzero"/></clipPath></defs><g clip-path="url(#c15230e29d)"><path fill="#ffffff" d="M 0.484375 0 L 29.515625 0 L 29.515625 29.03125 L 0.484375 29.03125 Z M 0.484375 0 " fill-opacity="1" fill-rule="nonzero"/><path fill="#000000" d="M 0.484375 0 L 29.515625 0 L 29.515625 29.03125 L 0.484375 29.03125 Z M 0.484375 0 " fill-opacity="1" fill-rule="nonzero"/></g><path fill="#ffffff" d="M 22.800781 18.730469 C 19.984375 17.367188 19.535156 15.261719 19.515625 15.105469 C 19.492188 14.917969 19.464844 14.769531 19.671875 14.578125 C 19.875 14.390625 20.765625 13.839844 21.015625 13.664062 C 21.421875 13.378906 21.605469 13.09375 21.472656 12.742188 C 21.378906 12.5 21.152344 12.40625 20.914062 12.40625 C 20.839844 12.410156 20.765625 12.417969 20.691406 12.433594 C 20.242188 12.53125 19.804688 12.757812 19.550781 12.816406 C 19.519531 12.824219 19.488281 12.828125 19.457031 12.828125 C 19.324219 12.828125 19.273438 12.769531 19.285156 12.609375 C 19.316406 12.117188 19.382812 11.15625 19.304688 10.261719 C 19.199219 9.027344 18.800781 8.417969 18.332031 7.875 C 18.101562 7.613281 17.042969 6.488281 15 6.488281 C 12.957031 6.488281 11.898438 7.613281 11.671875 7.875 C 11.199219 8.414062 10.800781 9.023438 10.695312 10.257812 C 10.617188 11.152344 10.6875 12.113281 10.71875 12.605469 C 10.726562 12.757812 10.679688 12.828125 10.542969 12.828125 C 10.511719 12.824219 10.480469 12.820312 10.453125 12.8125 C 10.199219 12.753906 9.761719 12.527344 9.3125 12.429688 C 9.238281 12.414062 9.164062 12.40625 9.089844 12.40625 C 8.851562 12.40625 8.625 12.496094 8.53125 12.738281 C 8.398438 13.089844 8.578125 13.375 8.988281 13.664062 C 9.238281 13.835938 10.128906 14.386719 10.332031 14.574219 C 10.539062 14.765625 10.511719 14.914062 10.488281 15.101562 C 10.46875 15.261719 10.019531 17.367188 7.203125 18.726562 C 7.039062 18.804688 6.757812 18.976562 7.253906 19.25 C 8.027344 19.679688 8.546875 19.632812 8.949219 19.890625 C 9.289062 20.109375 9.085938 20.585938 9.335938 20.753906 C 9.640625 20.964844 10.539062 20.738281 11.703125 21.125 C 12.679688 21.445312 13.273438 22.355469 15.003906 22.355469 C 16.730469 22.355469 17.34375 21.441406 18.300781 21.125 C 19.460938 20.738281 20.363281 20.964844 20.667969 20.753906 C 20.917969 20.585938 20.714844 20.109375 21.058594 19.890625 C 21.457031 19.632812 21.976562 19.679688 22.753906 19.25 C 23.246094 18.980469 22.964844 18.808594 22.800781 18.730469 Z M 22.800781 18.730469 " fill-opacity="1" fill-rule="nonzero"/><path fill="#000000" d="M 24.027344 18.570312 C 23.898438 18.226562 23.660156 18.042969 23.382812 17.890625 C 23.332031 17.859375 23.285156 17.835938 23.246094 17.816406 C 23.164062 17.773438 23.078125 17.734375 22.996094 17.691406 C 22.140625 17.238281 21.476562 16.664062 21.011719 15.988281 C 20.882812 15.796875 20.765625 15.597656 20.671875 15.386719 C 20.632812 15.273438 20.632812 15.207031 20.664062 15.148438 C 20.691406 15.105469 20.726562 15.066406 20.773438 15.035156 C 20.917969 14.9375 21.070312 14.839844 21.171875 14.773438 C 21.355469 14.65625 21.5 14.5625 21.59375 14.496094 C 21.945312 14.25 22.191406 13.988281 22.34375 13.699219 C 22.570312 13.269531 22.597656 12.832031 22.421875 12.378906 C 22.191406 11.769531 21.613281 11.386719 20.914062 11.386719 C 20.765625 11.386719 20.617188 11.402344 20.472656 11.433594 C 20.433594 11.441406 20.398438 11.453125 20.359375 11.460938 C 20.367188 11.042969 20.355469 10.601562 20.320312 10.167969 C 20.1875 8.640625 19.652344 7.839844 19.09375 7.203125 C 18.734375 6.800781 18.320312 6.464844 17.851562 6.203125 C 17.003906 5.71875 16.046875 5.472656 15 5.472656 C 13.953125 5.472656 13 5.71875 12.152344 6.203125 C 11.679688 6.464844 11.265625 6.800781 10.90625 7.203125 C 10.347656 7.84375 9.8125 8.644531 9.683594 10.171875 C 9.644531 10.605469 9.636719 11.046875 9.640625 11.464844 C 9.605469 11.453125 9.566406 11.445312 9.527344 11.4375 C 9.382812 11.40625 9.238281 11.390625 9.089844 11.390625 C 8.386719 11.390625 7.808594 11.769531 7.578125 12.382812 C 7.402344 12.832031 7.429688 13.273438 7.65625 13.699219 C 7.808594 13.992188 8.054688 14.253906 8.40625 14.496094 C 8.5 14.5625 8.644531 14.65625 8.828125 14.777344 C 8.925781 14.839844 9.070312 14.933594 9.210938 15.027344 C 9.261719 15.0625 9.304688 15.101562 9.335938 15.152344 C 9.363281 15.214844 9.367188 15.277344 9.320312 15.398438 C 9.226562 15.605469 9.117188 15.804688 8.988281 15.992188 C 8.535156 16.652344 7.886719 17.214844 7.058594 17.664062 C 6.621094 17.894531 6.167969 18.050781 5.972656 18.574219 C 5.828125 18.96875 5.925781 19.417969 6.292969 19.792969 C 6.429688 19.9375 6.582031 20.054688 6.757812 20.144531 C 7.117188 20.34375 7.496094 20.496094 7.894531 20.601562 C 7.976562 20.621094 8.050781 20.65625 8.125 20.703125 C 8.257812 20.820312 8.238281 20.996094 8.417969 21.257812 C 8.507812 21.390625 8.621094 21.507812 8.753906 21.597656 C 9.128906 21.859375 9.550781 21.875 9.996094 21.890625 C 10.402344 21.90625 10.859375 21.925781 11.382812 22.097656 C 11.597656 22.167969 11.824219 22.308594 12.082031 22.46875 C 12.710938 22.851562 13.566406 23.378906 15 23.378906 C 16.433594 23.378906 17.296875 22.851562 17.925781 22.464844 C 18.183594 22.304688 18.40625 22.167969 18.617188 22.097656 C 19.140625 21.925781 19.597656 21.910156 20 21.894531 C 20.449219 21.875 20.871094 21.859375 21.246094 21.601562 C 21.40625 21.488281 21.53125 21.351562 21.628906 21.183594 C 21.757812 20.964844 21.753906 20.8125 21.875 20.703125 C 21.941406 20.660156 22.011719 20.625 22.089844 20.605469 C 22.492188 20.5 22.878906 20.347656 23.242188 20.148438 C 23.425781 20.046875 23.589844 19.921875 23.730469 19.765625 L 23.734375 19.757812 C 24.082031 19.390625 24.167969 18.953125 24.027344 18.570312 Z M 22.75 19.253906 C 21.972656 19.683594 21.457031 19.636719 21.054688 19.894531 C 20.714844 20.117188 20.917969 20.589844 20.667969 20.761719 C 20.363281 20.972656 19.464844 20.746094 18.300781 21.128906 C 17.339844 21.445312 16.726562 22.359375 15 22.359375 C 13.273438 22.359375 12.675781 21.449219 11.703125 21.128906 C 10.539062 20.742188 9.636719 20.96875 9.332031 20.757812 C 9.085938 20.585938 9.285156 20.113281 8.945312 19.894531 C 8.542969 19.636719 8.027344 19.679688 7.25 19.253906 C 6.753906 18.980469 7.035156 18.8125 7.199219 18.730469 C 10.015625 17.371094 10.464844 15.265625 10.484375 15.109375 C 10.507812 14.917969 10.535156 14.769531 10.328125 14.578125 C 10.125 14.394531 9.234375 13.839844 8.988281 13.667969 C 8.578125 13.382812 8.398438 13.097656 8.53125 12.746094 C 8.621094 12.503906 8.847656 12.410156 9.085938 12.410156 C 9.164062 12.410156 9.238281 12.417969 9.3125 12.4375 C 9.761719 12.53125 10.195312 12.757812 10.449219 12.820312 C 10.480469 12.828125 10.511719 12.832031 10.542969 12.832031 C 10.675781 12.832031 10.722656 12.765625 10.714844 12.609375 C 10.6875 12.117188 10.617188 11.160156 10.695312 10.261719 C 10.800781 9.03125 11.199219 8.417969 11.667969 7.878906 C 11.894531 7.621094 12.960938 6.492188 15 6.492188 C 17.035156 6.492188 18.101562 7.613281 18.328125 7.875 C 18.800781 8.414062 19.199219 9.023438 19.304688 10.257812 C 19.382812 11.152344 19.316406 12.113281 19.285156 12.605469 C 19.273438 12.765625 19.324219 12.828125 19.457031 12.828125 C 19.488281 12.824219 19.519531 12.820312 19.550781 12.8125 C 19.800781 12.753906 20.238281 12.527344 20.6875 12.429688 C 20.761719 12.414062 20.835938 12.40625 20.914062 12.40625 C 21.152344 12.40625 21.375 12.496094 21.46875 12.738281 C 21.601562 13.089844 21.421875 13.375 21.011719 13.664062 C 20.765625 13.835938 19.875 14.386719 19.671875 14.574219 C 19.464844 14.765625 19.492188 14.914062 19.515625 15.101562 C 19.535156 15.261719 19.984375 17.367188 22.800781 18.726562 C 22.964844 18.808594 23.246094 18.980469 22.75 19.253906 Z M 22.75 19.253906 " fill-opacity="1" fill-rule="nonzero"/></svg>