<svg xmlns="http://www.w3.org/2000/svg" xmlns:xlink="http://www.w3.org/1999/xlink" width="40" zoomAndPan="magnify" viewBox="0 0 30 30.000001" height="40" preserveAspectRatio="xMidYMid meet" version="1.0"><defs><clipPath id="6cd16b6e4a"><path d="M 0.484375 0 L 29.515625 0 L 29.515625 29.03125 L 0.484375 29.03125 Z M 0.484375 0 " clip-rule="nonzero"/></clipPath><clipPath id="537ded3287"><path d="M 3.386719 2.902344 L 26.613281 2.902344 L 26.613281 26.128906 L 3.386719 26.128906 Z M 3.386719 2.902344 " clip-rule="nonzero"/></clipPath></defs><g clip-path="url(#6cd16b6e4a)"><path fill="#ffffff" d="M 0.484375 0 L 29.515625 0 L 29.515625 29.03125 L 0.484375 29.03125 Z M 0.484375 0 " fill-opacity="1" fill-rule="nonzero"/><path fill="#000000" d="M 0.484375 0 L 29.515625 0 L 29.515625 29.03125 L 0.484375 29.03125 Z M 0.484375 0 " fill-opacity="1" fill-rule="nonzero"/></g><g clip-path="url(#537ded3287)"><path fill="#ffffff" d="M 26.613281 14.515625 C 26.613281 15.277344 26.539062 16.035156 26.390625 16.78125 C 26.242188 17.53125 26.019531 18.257812 25.730469 18.960938 C 25.4375 19.664062 25.078125 20.335938 24.65625 20.96875 C 24.234375 21.601562 23.75 22.1875 23.210938 22.726562 C 22.671875 23.265625 22.085938 23.75 21.453125 24.171875 C 20.816406 24.597656 20.148438 24.953125 19.445312 25.246094 C 18.738281 25.539062 18.015625 25.757812 17.265625 25.90625 C 16.519531 26.054688 15.761719 26.128906 15 26.128906 C 14.238281 26.128906 13.484375 26.054688 12.734375 25.90625 C 11.988281 25.757812 11.261719 25.539062 10.554688 25.246094 C 9.851562 24.953125 9.183594 24.597656 8.546875 24.171875 C 7.914062 23.75 7.328125 23.265625 6.789062 22.726562 C 6.25 22.1875 5.769531 21.601562 5.34375 20.96875 C 4.921875 20.335938 4.5625 19.664062 4.269531 18.960938 C 3.980469 18.257812 3.757812 17.53125 3.609375 16.78125 C 3.460938 16.035156 3.386719 15.277344 3.386719 14.515625 C 3.386719 13.753906 3.460938 13 3.609375 12.25 C 3.757812 11.503906 3.980469 10.777344 4.269531 10.070312 C 4.5625 9.367188 4.921875 8.699219 5.34375 8.066406 C 5.769531 7.429688 6.25 6.84375 6.789062 6.304688 C 7.328125 5.765625 7.914062 5.285156 8.546875 4.859375 C 9.183594 4.4375 9.851562 4.078125 10.554688 3.789062 C 11.261719 3.496094 11.988281 3.273438 12.734375 3.125 C 13.484375 2.976562 14.238281 2.902344 15 2.902344 C 15.761719 2.902344 16.519531 2.976562 17.265625 3.125 C 18.015625 3.273438 18.738281 3.496094 19.445312 3.789062 C 20.148438 4.078125 20.816406 4.4375 21.453125 4.859375 C 22.085938 5.285156 22.671875 5.765625 23.210938 6.304688 C 23.75 6.84375 24.234375 7.429688 24.65625 8.066406 C 25.078125 8.699219 25.4375 9.367188 25.730469 10.070312 C 26.019531 10.777344 26.242188 11.503906 26.390625 12.25 C 26.539062 13 26.613281 13.753906 26.613281 14.515625 Z M 26.613281 14.515625 " fill-opacity="1" fill-rule="nonzero"/></g><path fill="#25f4ee" d="M 13.382812 12.558594 L 13.382812 11.925781 C 13.167969 11.894531 12.945312 11.875 12.71875 11.875 C 10.003906 11.875 7.796875 14.085938 7.796875 16.800781 C 7.796875 18.464844 8.628906 19.941406 9.898438 20.832031 C 9.078125 19.953125 8.578125 18.773438 8.578125 17.480469 C 8.578125 14.804688 10.722656 12.621094 13.382812 12.558594 Z M 13.382812 12.558594 " fill-opacity="1" fill-rule="nonzero"/><path fill="#25f4ee" d="M 13.5 19.726562 C 14.710938 19.726562 15.699219 18.765625 15.746094 17.566406 L 15.75 6.84375 L 17.707031 6.84375 C 17.667969 6.625 17.644531 6.398438 17.644531 6.164062 L 14.96875 6.164062 L 14.964844 16.886719 C 14.917969 18.085938 13.933594 19.050781 12.71875 19.050781 C 12.34375 19.050781 11.988281 18.957031 11.679688 18.792969 C 12.085938 19.359375 12.75 19.730469 13.5 19.730469 Z M 13.5 19.726562 " fill-opacity="1" fill-rule="nonzero"/><path fill="#25f4ee" d="M 21.367188 10.484375 L 21.367188 9.886719 C 20.617188 9.886719 19.921875 9.664062 19.339844 9.285156 C 19.859375 9.878906 20.566406 10.3125 21.367188 10.484375 Z M 21.367188 10.484375 " fill-opacity="1" fill-rule="nonzero"/><path fill="#fe2c55" d="M 19.339844 9.285156 C 18.769531 8.628906 18.421875 7.777344 18.421875 6.84375 L 17.707031 6.84375 C 17.894531 7.863281 18.5 8.738281 19.339844 9.285156 Z M 19.339844 9.285156 " fill-opacity="1" fill-rule="nonzero"/><path fill="#fe2c55" d="M 12.71875 14.550781 C 11.480469 14.550781 10.472656 15.558594 10.472656 16.800781 C 10.472656 17.664062 10.960938 18.414062 11.675781 18.789062 C 11.410156 18.421875 11.25 17.96875 11.25 17.480469 C 11.25 16.238281 12.261719 15.230469 13.5 15.230469 C 13.730469 15.230469 13.953125 15.269531 14.164062 15.335938 L 14.164062 12.605469 C 13.945312 12.574219 13.726562 12.554688 13.5 12.554688 C 13.460938 12.554688 13.421875 12.558594 13.382812 12.558594 L 13.382812 14.65625 C 13.175781 14.589844 12.953125 14.550781 12.71875 14.550781 Z M 12.71875 14.550781 " fill-opacity="1" fill-rule="nonzero"/><path fill="#fe2c55" d="M 21.367188 10.484375 L 21.367188 12.5625 C 19.976562 12.5625 18.691406 12.117188 17.644531 11.367188 L 17.644531 16.800781 C 17.644531 19.515625 15.433594 21.726562 12.71875 21.726562 C 11.671875 21.726562 10.699219 21.394531 9.898438 20.832031 C 10.796875 21.796875 12.078125 22.402344 13.5 22.402344 C 16.214844 22.402344 18.425781 20.195312 18.425781 17.480469 L 18.425781 12.042969 C 19.472656 12.796875 20.757812 13.242188 22.144531 13.242188 L 22.144531 10.566406 C 21.878906 10.566406 21.617188 10.535156 21.367188 10.484375 Z M 21.367188 10.484375 " fill-opacity="1" fill-rule="nonzero"/><path fill="#000000" d="M 17.644531 16.800781 L 17.644531 11.363281 C 18.691406 12.117188 19.976562 12.5625 21.367188 12.5625 L 21.367188 10.480469 C 20.566406 10.3125 19.859375 9.878906 19.339844 9.285156 C 18.5 8.738281 17.894531 7.863281 17.707031 6.84375 L 15.75 6.84375 L 15.746094 17.5625 C 15.699219 18.765625 14.710938 19.726562 13.5 19.726562 C 12.75 19.726562 12.085938 19.355469 11.675781 18.789062 C 10.960938 18.414062 10.472656 17.664062 10.472656 16.800781 C 10.472656 15.558594 11.480469 14.550781 12.71875 14.550781 C 12.953125 14.550781 13.175781 14.589844 13.382812 14.65625 L 13.382812 12.558594 C 10.722656 12.621094 8.578125 14.800781 8.578125 17.476562 C 8.578125 18.773438 9.078125 19.949219 9.898438 20.832031 C 10.699219 21.390625 11.671875 21.722656 12.71875 21.722656 C 15.433594 21.722656 17.644531 19.515625 17.644531 16.800781 Z M 17.644531 16.800781 " fill-opacity="1" fill-rule="nonzero"/></svg>