<svg xmlns="http://www.w3.org/2000/svg" xmlns:xlink="http://www.w3.org/1999/xlink" width="40" zoomAndPan="magnify" viewBox="0 0 30 30.000001" height="40" preserveAspectRatio="xMidYMid meet" version="1.0"><defs><clipPath id="9b5f172818"><path d="M 0.484375 0 L 29.515625 0 L 29.515625 29.03125 L 0.484375 29.03125 Z M 0.484375 0 " clip-rule="nonzero"/></clipPath><clipPath id="fb91f6980d"><path d="M 3.386719 4.023438 L 26.613281 4.023438 L 26.613281 25.070312 L 3.386719 25.070312 Z M 3.386719 4.023438 " clip-rule="nonzero"/></clipPath></defs><g clip-path="url(#9b5f172818)"><path fill="#ffffff" d="M 0.484375 0 L 29.515625 0 L 29.515625 29.03125 L 0.484375 29.03125 Z M 0.484375 0 " fill-opacity="1" fill-rule="nonzero"/><path fill="#000000" d="M 0.484375 0 L 29.515625 0 L 29.515625 29.03125 L 0.484375 29.03125 Z M 0.484375 0 " fill-opacity="1" fill-rule="nonzero"/></g><g clip-path="url(#fb91f6980d)"><path fill="#ffffff" d="M 21.667969 4.023438 L 25.210938 4.023438 L 17.472656 12.957031 L 26.609375 25.070312 L 19.429688 25.070312 L 13.835938 17.726562 L 7.402344 25.070312 L 3.855469 25.070312 L 12.15625 15.527344 L 3.390625 4.023438 L 10.757812 4.023438 L 15.839844 10.757812 Z M 20.410156 22.917969 L 22.367188 22.917969 L 9.683594 6.035156 L 7.539062 6.035156 Z M 20.410156 22.917969 " fill-opacity="1" fill-rule="nonzero"/></g></svg>